<svg id="Livello_1" data-name="Livello 1" xmlns="http://www.w3.org/2000/svg" xmlns:xlink="http://www.w3.org/1999/xlink" viewBox="0 0 250 250"><defs><style>.cls-1{fill:#131418;}.cls-2{fill:url(#Sfumatura_senza_nome_21);}.cls-3{fill:url(#Sfumatura_senza_nome_21-2);}.cls-4{fill:url(#Sfumatura_senza_nome_21-3);}.cls-5{fill:url(#Sfumatura_senza_nome_21-4);}.cls-6{fill:url(#Sfumatura_senza_nome_21-5);}</style><linearGradient id="Sfumatura_senza_nome_21" x1="125.08" y1="22.27" x2="125.08" y2="226.41" gradientUnits="userSpaceOnUse"><stop offset="0" stop-color="#f9d339"/><stop offset="1" stop-color="#f1bb11"/></linearGradient><linearGradient id="Sfumatura_senza_nome_21-2" x1="125.31" y1="22.27" x2="125.31" y2="226.41" xlink:href="#Sfumatura_senza_nome_21"/><linearGradient id="Sfumatura_senza_nome_21-3" x1="125.23" y1="22.27" x2="125.23" y2="226.41" xlink:href="#Sfumatura_senza_nome_21"/><linearGradient id="Sfumatura_senza_nome_21-4" x1="51.95" y1="22.27" x2="51.95" y2="226.41" xlink:href="#Sfumatura_senza_nome_21"/><linearGradient id="Sfumatura_senza_nome_21-5" x1="198.1" y1="22.27" x2="198.1" y2="226.41" xlink:href="#Sfumatura_senza_nome_21"/></defs><rect class="cls-1" x="2.89" y="2.89" width="244.23" height="244.23" rx="51.68"/><path class="cls-2" d="M86.49,107.89c1.57,1.64,2.39,1.55,3.94,0,10.82-10.94,21.74-21.77,32.63-32.64.6-.59,1.22-1.16,2-1.85.71.66,1.33,1.23,1.92,1.82,10.9,10.86,21.83,21.68,32.63,32.64,1.74,1.78,2.57,1.56,4.17-.08Q172.22,99,181,90.6c1.54-1.48,1.73-2.26.07-3.9q-27.18-26.94-54.17-54.07c-1.45-1.46-2.17-1.67-3.75-.07Q96.19,59.69,69,86.63c-1.62,1.61-1.32,2.36.12,3.77C75,96.15,80.8,102,86.49,107.89Z"/><path class="cls-3" d="M163.51,142c-1.46-1.5-2.21-1.62-3.77,0-10.87,11-21.9,21.87-32.77,32.89-1.63,1.65-2.43,1.49-4-.06-10.87-11-21.85-21.93-32.74-32.93-1.24-1.25-1.94-1.51-3.32-.09-5.93,6.09-12,12.08-18,18-1.25,1.22-1.54,1.92-.11,3.35q27.38,27.15,54.57,54.46c1.41,1.41,2.1,1.17,3.34-.09,6.16-6.27,12.41-12.46,18.64-18.66q17.88-17.79,35.76-35.58a4.18,4.18,0,0,0,1.64-2.31,13.68,13.68,0,0,1-1.44-1.12C175.36,153.93,169.37,148,163.51,142Z"/><path class="cls-4" d="M126.47,105.24c-1.2-1.21-1.86-1-3,.07q-9,9.18-18.24,18.21c-1.16,1.14-1.18,1.8,0,3q9.27,9.17,18.38,18.48c1,1,1.53,1.3,2.68.14,6.23-6.33,12.54-12.57,18.82-18.85a2.08,2.08,0,0,0,.93-1.83,4.32,4.32,0,0,1-.91-.6C138.91,117.64,132.64,111.48,126.47,105.24Z"/><path class="cls-5" d="M72,123.58C65.7,117.44,59.52,111.21,53.31,105c-.4-.39-.83-.75-1.33-1.2-.42.38-.77.68-1.1,1-6.34,6.33-12.65,12.7-19.06,19-1.28,1.25-.58,1.83.3,2.7,6.16,6.11,12.32,12.22,18.41,18.4,1.11,1.13,1.73,1.23,2.89.05q9.12-9.28,18.42-18.4C72.92,125.46,73.21,124.8,72,123.58Z"/><path class="cls-6" d="M218.12,123.69c-6.32-6.23-12.54-12.55-18.8-18.83-.34-.34-.7-.65-1.12-1-.38.32-.76.6-1.08.92-6.35,6.33-12.66,12.69-19.06,19-1.18,1.16-.79,1.78.17,2.73q9.27,9.13,18.42,18.39c1,1,1.56,1.25,2.69.11q9.25-9.36,18.68-18.55C219,125.4,219.26,124.81,218.12,123.69Z"/></svg>