<svg id="Livello_1" data-name="Livello 1" xmlns="http://www.w3.org/2000/svg" viewBox="0 0 250 250"><defs><style>.cls-1{fill:#131418;}.cls-2{fill:#1d2243;}.cls-3{fill:#34a7df;}</style></defs><rect class="cls-1" x="2.89" y="2.89" width="244.23" height="244.23" rx="51.68"/><path class="cls-2" d="M144.24,85.06c-.39-3.4-.6-6.82-1.18-10.18-2.71-15.48-8.18-29.74-19.12-41.43-.8-.86-1.59-2.46-3-1.92s-.65,2.23-.68,3.38c-.7,25.53-9.42,47.66-27.54,65.92-4.1,4.13-8.1,8.37-11.89,12.79-21,24.52-22.77,55.38-4.43,80.72,8.64,11.93,19.75,20.58,34.45,23.9,1.22.27,2.68.76,3.58-.37s-.06-2.42-.61-3.51c-2.51-5-5.31-9.8-7.59-14.86-7.8-17.27-7.22-34.08,3-50.35,3.85-6.11,8-12,12.38-17.73,5.35-7.06,10.92-14,15.49-21.57S145,94.22,144.24,85.06Z"/><path class="cls-3" d="M163.42,107.6c-1.48-1.31-2.35-1.77-3,.8-1.43,5.95-4.29,11.31-7.16,16.68-4,7.49-9.19,14.22-13.66,21.41-7.06,11.4-12.72,23.31-12.74,39.16-.5,11.56,6.3,21.86,14.82,31.41,1.32,1.48,2.42,1.53,3.56-.28,2.09-3.33,5.29-5.37,8.71-7.12a58.47,58.47,0,0,0,20.75-17.91C193.93,165.52,188.29,129.69,163.42,107.6Z"/></svg>