<svg id="Livello_1" data-name="Livello 1" xmlns="http://www.w3.org/2000/svg" viewBox="0 0 250 250"><defs><style>.cls-1{fill:#131418;}.cls-2{fill:#27b092;}</style></defs><rect class="cls-1" x="2.89" y="2.89" width="244.23" height="244.23" rx="51.68"/><path class="cls-2" d="M194.69,140.77c-5-.13-9,1.82-12.43,5.33-10.1,10.24-20.37,20.31-30.4,30.63-3.36,3.45-4.89,3.1-10.12-3.78a218.55,218.55,0,0,0-42.1-42.09c-6.46-4.88-6.06-6.42-2.91-9.54Q121,97.29,144.89,73c2.59-2.63,4.09-3,6.83-.11,9,9.4,18.32,18.51,27.53,27.72,12,12,20.8,11.66,30-1.4.36-2.66.8-5.95,1.16-8.61-1.7-4.79-4.88-8.45-8.4-12-13.52-13.44-26.93-27-40.42-40.47-9-9-17.39-9-26.25-.14Q106,67.34,76.83,96.75a40.12,40.12,0,0,0-3.73,5.16c-2.72-2.34-1.94-4.21-1.95-5.81-.09-10.9.09-21.8-.1-32.7-.17-9.41-6.85-16-15.77-16s-15.61,6.51-15.63,16q-.1,61.61,0,123.2c0,9.09,6.59,15.64,15.26,15.8,8.89.17,15.9-6.43,16.11-15.69.25-10.7,0-21.41.11-32.11,0-1.87-.51-3.83.56-5.76,2.28.57,3.37,2.52,4.8,3.95q27.47,27.44,54.82,55a92.76,92.76,0,0,0,8.51,7.86,13.73,13.73,0,0,0,16.59.33,67.23,67.23,0,0,0,8-7.18c11.58-11.73,23.26-23.37,34.91-35,3.77-3.77,7.69-7.41,10.38-12.09.14-2.63.32-5.93.46-8.56C207.27,146.13,202.92,141,194.69,140.77Z"/><path class="cls-2" d="M132.76,124.55a15.63,15.63,0,0,0,15.59,16.16,16,16,0,0,0,15.85-15.46,15.72,15.72,0,0,0-15.74-16.06A15.34,15.34,0,0,0,132.76,124.55Z"/></svg>